<svg width="198" height="639" viewBox="0 0 198 639" fill="none" xmlns="http://www.w3.org/2000/svg">
<path d="M71.338 301.378V243H123.877V301.378H108.449V256.761H86.7655V301.378H71.338Z" fill="white"/>
<path d="M103.109 638.631V614.78C103.109 613.167 103.135 611.515 103.191 609.817C103.245 608.122 103.331 606.579 103.444 605.19L80.5938 638.631H66V580.254H81.4262V604.105C81.4262 605.719 81.3975 607.386 81.3438 609.109C81.2875 610.834 81.205 612.39 81.095 613.779L103.944 580.254H118.536V638.631H103.109Z" fill="white"/>
<path d="M114.369 496.254V510.014H97.94V554.631H82.5125V510.014H66V496.254H114.369Z" fill="white"/>
<path d="M98.2738 463.335C96.8275 465.198 95.2838 466.685 93.645 467.796C92.0038 468.909 90.2938 469.7 88.515 470.174C86.7363 470.645 84.8463 470.883 82.845 470.883C81.3438 470.883 79.8137 470.729 78.2575 470.424C76.7013 470.118 75.1175 469.741 73.505 469.298V456.539C74.505 456.928 75.6025 457.219 76.7987 457.414C77.9937 457.609 79.1462 457.705 80.26 457.705C82.095 457.705 83.65 457.414 84.93 456.83C86.2087 456.246 87.1812 455.204 87.8488 453.703L88.7663 451.7L66 411.254H83.095L95.9388 437.858L106.446 411.254H123.542L102.442 456.288C101.109 459.124 99.7175 461.473 98.2738 463.335Z" fill="white"/>
<path d="M77 386.631V328.254H119.115V342.015H92.4275V386.631H77Z" fill="white"/>
<path d="M198 99C198 153.676 153.676 198 99 198C44.324 198 0 153.676 0 99C0 44.3241 44.324 0 99 0C153.676 0 198 44.3241 198 99Z" fill="white"/>
<path d="M104.046 175.694C59.1135 175.694 22.5604 139.141 22.5604 94.209C22.5604 49.277 59.1135 12.7238 104.046 12.7238C148.978 12.7238 185.533 49.277 185.533 94.209C185.533 139.141 148.978 175.694 104.046 175.694ZM104.046 7.39645C56.1785 7.39645 17.233 46.3419 17.233 94.209C17.233 142.076 56.1785 181.021 104.046 181.021C151.915 181.021 190.858 142.076 190.858 94.209C190.858 46.3419 151.915 7.39645 104.046 7.39645Z" fill="#2C4D6C"/>
<path d="M109.092 156.311C72.2082 156.311 42.2008 126.303 42.2008 89.4193C42.2008 52.5354 72.2082 22.5279 109.092 22.5279C145.976 22.5279 175.984 52.5354 175.984 89.4193C175.984 126.303 145.976 156.311 109.092 156.311ZM109.092 17.713C69.5527 17.713 37.3859 49.8799 37.3859 89.4193C37.3859 128.959 69.5527 161.123 109.092 161.123C148.632 161.123 180.798 128.959 180.798 89.4193C180.798 49.8799 148.632 17.713 109.092 17.713Z" fill="#2C4D6C"/>
<path d="M114.139 136.925C85.3032 136.925 61.8437 113.465 61.8437 84.6293C61.8437 55.7935 85.3032 32.334 114.139 32.334C142.975 32.334 166.434 55.7935 166.434 84.6293C166.434 113.465 142.975 136.925 114.139 136.925ZM114.139 28.0293C82.9295 28.0293 57.5389 53.4199 57.5389 84.6293C57.5389 115.836 82.9295 141.229 114.139 141.229C145.348 141.229 170.739 115.836 170.739 84.6293C170.739 53.4199 145.348 28.0293 114.139 28.0293Z" fill="#2C4D6C"/>
<path d="M119.184 117.539C98.3967 117.539 81.4828 100.627 81.4828 79.8394C81.4828 59.0517 98.3967 42.1379 119.184 42.1379C139.972 42.1379 156.886 59.0517 156.886 79.8394C156.886 100.627 139.972 117.539 119.184 117.539ZM119.184 38.3456C96.3049 38.3456 77.6929 56.9599 77.6929 79.8394C77.6929 102.719 96.3049 121.333 119.184 121.333C142.064 121.333 160.676 102.719 160.676 79.8394C160.676 56.9599 142.064 38.3456 119.184 38.3456Z" fill="#2C4D6C"/>
<path d="M124.231 98.1549C111.489 98.1549 101.126 87.789 101.126 75.0494C101.126 62.3076 111.489 51.944 124.231 51.944C136.971 51.944 147.337 62.3076 147.337 75.0494C147.337 87.789 136.971 98.1549 124.231 98.1549ZM124.231 48.6619C109.682 48.6619 97.8435 60.4999 97.8435 75.0494C97.8435 89.599 109.682 101.435 124.231 101.435C138.781 101.435 150.616 89.599 150.616 75.0494C150.616 60.4999 138.781 48.6619 124.231 48.6619Z" fill="#2C4D6C"/>
</svg>
